<mxfile host="65bd71144e">
    <diagram id="2ZUwUvcerIpWWGl_967H" name="Page-1">
        <mxGraphModel dx="922" dy="1523" grid="1" gridSize="10" guides="1" tooltips="1" connect="1" arrows="1" fold="1" page="1" pageScale="1" pageWidth="850" pageHeight="1100" math="0" shadow="0">
            <root>
                <mxCell id="0"/>
                <mxCell id="1" parent="0"/>
                <mxCell id="72" value="armamento" style="ellipse;whiteSpace=wrap;html=1;" parent="1" vertex="1">
                    <mxGeometry x="966.25" y="-235" width="102.5" height="70" as="geometry"/>
                </mxCell>
                <mxCell id="2" value="" style="ellipse;whiteSpace=wrap;html=1;" parent="1" vertex="1">
                    <mxGeometry x="20" y="120" width="100" height="60" as="geometry"/>
                </mxCell>
                <mxCell id="3" value="" style="rounded=0;whiteSpace=wrap;html=1;" parent="1" vertex="1">
                    <mxGeometry x="7.5" y="40" width="125" height="60" as="geometry"/>
                </mxCell>
                <mxCell id="4" value="" style="rhombus;whiteSpace=wrap;html=1;" parent="1" vertex="1">
                    <mxGeometry x="20" y="220" width="100" height="80" as="geometry"/>
                </mxCell>
                <mxCell id="5" value="SOLDADO" style="rounded=0;whiteSpace=wrap;html=1;" parent="1" vertex="1">
                    <mxGeometry x="320" y="80" width="125" height="60" as="geometry"/>
                </mxCell>
                <mxCell id="6" value="VEICULO" style="rounded=0;whiteSpace=wrap;html=1;" parent="1" vertex="1">
                    <mxGeometry x="690" y="80" width="125" height="60" as="geometry"/>
                </mxCell>
                <mxCell id="7" value="TERRESTRE" style="rounded=0;whiteSpace=wrap;html=1;" parent="1" vertex="1">
                    <mxGeometry x="560" y="-130" width="125" height="60" as="geometry"/>
                </mxCell>
                <mxCell id="8" value="AEREO" style="rounded=0;whiteSpace=wrap;html=1;" parent="1" vertex="1">
                    <mxGeometry x="815" y="-130" width="125" height="60" as="geometry"/>
                </mxCell>
                <mxCell id="9" value="NAVE_CARGA" style="rounded=0;whiteSpace=wrap;html=1;" parent="1" vertex="1">
                    <mxGeometry x="700" y="-320" width="125" height="60" as="geometry"/>
                </mxCell>
                <mxCell id="10" value="NAVE_BATALHA" style="rounded=0;whiteSpace=wrap;html=1;" parent="1" vertex="1">
                    <mxGeometry x="930" y="-320" width="125" height="60" as="geometry"/>
                </mxCell>
                <mxCell id="11" value="PLANETA" style="rounded=0;whiteSpace=wrap;html=1;" parent="1" vertex="1">
                    <mxGeometry x="520" y="430" width="125" height="60" as="geometry"/>
                </mxCell>
                <mxCell id="12" value="SISTEMA_SOLAR" style="rounded=0;whiteSpace=wrap;html=1;" parent="1" vertex="1">
                    <mxGeometry x="907.5" y="430" width="125" height="60" as="geometry"/>
                </mxCell>
                <mxCell id="13" value="BASE" style="rounded=0;whiteSpace=wrap;html=1;" parent="1" vertex="1">
                    <mxGeometry x="320" y="310" width="125" height="60" as="geometry"/>
                </mxCell>
                <mxCell id="14" value="responsavel" style="rhombus;whiteSpace=wrap;html=1;" parent="1" vertex="1">
                    <mxGeometry x="520" y="70" width="100" height="80" as="geometry"/>
                </mxCell>
                <mxCell id="16" value="" style="ellipse;whiteSpace=wrap;html=1;aspect=fixed;" parent="1" vertex="1">
                    <mxGeometry x="40" y="320" width="60" height="60" as="geometry"/>
                </mxCell>
                <mxCell id="17" value="d" style="ellipse;whiteSpace=wrap;html=1;aspect=fixed;" parent="1" vertex="1">
                    <mxGeometry x="722.5" y="-40" width="60" height="60" as="geometry"/>
                </mxCell>
                <mxCell id="18" value="d" style="ellipse;whiteSpace=wrap;html=1;aspect=fixed;" parent="1" vertex="1">
                    <mxGeometry x="847.5" y="-230" width="60" height="60" as="geometry"/>
                </mxCell>
                <mxCell id="19" value="" style="endArrow=none;html=1;shape=link;" parent="1" source="17" target="6" edge="1">
                    <mxGeometry width="50" height="50" relative="1" as="geometry">
                        <mxPoint x="510" y="60" as="sourcePoint"/>
                        <mxPoint x="560" y="10" as="targetPoint"/>
                    </mxGeometry>
                </mxCell>
                <mxCell id="23" value="" style="endArrow=none;html=1;" parent="1" source="14" target="5" edge="1">
                    <mxGeometry width="50" height="50" relative="1" as="geometry">
                        <mxPoint x="970" y="20" as="sourcePoint"/>
                        <mxPoint x="970" y="80" as="targetPoint"/>
                    </mxGeometry>
                </mxCell>
                <mxCell id="24" value="" style="endArrow=none;html=1;" parent="1" source="14" target="6" edge="1">
                    <mxGeometry width="50" height="50" relative="1" as="geometry">
                        <mxPoint x="980" y="30" as="sourcePoint"/>
                        <mxPoint x="980" y="90" as="targetPoint"/>
                    </mxGeometry>
                </mxCell>
                <mxCell id="25" value="" style="endArrow=none;html=1;" parent="1" source="8" target="17" edge="1">
                    <mxGeometry width="50" height="50" relative="1" as="geometry">
                        <mxPoint x="630" y="120" as="sourcePoint"/>
                        <mxPoint x="700" y="120" as="targetPoint"/>
                    </mxGeometry>
                </mxCell>
                <mxCell id="26" value="" style="endArrow=none;html=1;" parent="1" source="7" target="17" edge="1">
                    <mxGeometry width="50" height="50" relative="1" as="geometry">
                        <mxPoint x="640" y="130" as="sourcePoint"/>
                        <mxPoint x="710" y="130" as="targetPoint"/>
                    </mxGeometry>
                </mxCell>
                <mxCell id="27" value="" style="endArrow=none;html=1;" parent="1" source="18" target="10" edge="1">
                    <mxGeometry width="50" height="50" relative="1" as="geometry">
                        <mxPoint x="845.833333333333" y="-60" as="sourcePoint"/>
                        <mxPoint x="786.8460302435342" y="-17.529141775344897" as="targetPoint"/>
                    </mxGeometry>
                </mxCell>
                <mxCell id="28" value="" style="endArrow=none;html=1;" parent="1" source="18" target="9" edge="1">
                    <mxGeometry width="50" height="50" relative="1" as="geometry">
                        <mxPoint x="855.833333333333" y="-50" as="sourcePoint"/>
                        <mxPoint x="796.8460302435342" y="-7.529141775344897" as="targetPoint"/>
                    </mxGeometry>
                </mxCell>
                <mxCell id="29" value="" style="endArrow=none;html=1;" parent="1" source="8" target="18" edge="1">
                    <mxGeometry width="50" height="50" relative="1" as="geometry">
                        <mxPoint x="865.833333333333" y="-40" as="sourcePoint"/>
                        <mxPoint x="806.8460302435342" y="2.470858224655103" as="targetPoint"/>
                    </mxGeometry>
                </mxCell>
                <mxCell id="30" value="1,1" style="text;html=1;align=center;verticalAlign=middle;resizable=0;points=[];autosize=1;strokeColor=none;fillColor=none;fontSize=11;fontFamily=Helvetica;fontColor=default;" parent="1" vertex="1">
                    <mxGeometry x="440" y="80" width="40" height="30" as="geometry"/>
                </mxCell>
                <mxCell id="32" value="0, n" style="text;html=1;align=center;verticalAlign=middle;resizable=0;points=[];autosize=1;strokeColor=none;fillColor=none;fontSize=11;fontFamily=Helvetica;fontColor=default;" parent="1" vertex="1">
                    <mxGeometry x="650" y="80" width="40" height="30" as="geometry"/>
                </mxCell>
                <mxCell id="33" value="pertence" style="rhombus;whiteSpace=wrap;html=1;" parent="1" vertex="1">
                    <mxGeometry x="725" y="420" width="100" height="80" as="geometry"/>
                </mxCell>
                <mxCell id="35" value="" style="endArrow=none;html=1;" parent="1" source="12" target="33" edge="1">
                    <mxGeometry width="50" height="50" relative="1" as="geometry">
                        <mxPoint x="695" y="340" as="sourcePoint"/>
                        <mxPoint x="620" y="340" as="targetPoint"/>
                    </mxGeometry>
                </mxCell>
                <mxCell id="36" value="" style="endArrow=none;html=1;" parent="1" source="33" target="11" edge="1">
                    <mxGeometry width="50" height="50" relative="1" as="geometry">
                        <mxPoint x="705" y="350" as="sourcePoint"/>
                        <mxPoint x="630" y="350" as="targetPoint"/>
                    </mxGeometry>
                </mxCell>
                <mxCell id="37" value="1,1" style="text;html=1;align=center;verticalAlign=middle;resizable=0;points=[];autosize=1;strokeColor=none;fillColor=none;fontSize=11;fontFamily=Helvetica;fontColor=default;" parent="1" vertex="1">
                    <mxGeometry x="867.5" y="430" width="40" height="30" as="geometry"/>
                </mxCell>
                <mxCell id="38" value="0, n" style="text;html=1;align=center;verticalAlign=middle;resizable=0;points=[];autosize=1;strokeColor=none;fillColor=none;fontSize=11;fontFamily=Helvetica;fontColor=default;" parent="1" vertex="1">
                    <mxGeometry x="645" y="430" width="40" height="30" as="geometry"/>
                </mxCell>
                <mxCell id="39" value="localiza" style="rhombus;whiteSpace=wrap;html=1;" parent="1" vertex="1">
                    <mxGeometry x="332.5" y="420" width="100" height="80" as="geometry"/>
                </mxCell>
                <mxCell id="40" value="" style="endArrow=none;html=1;" parent="1" source="11" target="39" edge="1">
                    <mxGeometry width="50" height="50" relative="1" as="geometry">
                        <mxPoint x="735" y="470" as="sourcePoint"/>
                        <mxPoint x="655" y="470" as="targetPoint"/>
                    </mxGeometry>
                </mxCell>
                <mxCell id="41" value="" style="endArrow=none;html=1;" parent="1" source="39" target="13" edge="1">
                    <mxGeometry width="50" height="50" relative="1" as="geometry">
                        <mxPoint x="592.5" y="440" as="sourcePoint"/>
                        <mxPoint x="592.5" y="360" as="targetPoint"/>
                    </mxGeometry>
                </mxCell>
                <mxCell id="42" value="esta_em" style="rhombus;whiteSpace=wrap;html=1;" parent="1" vertex="1">
                    <mxGeometry x="332.5" y="190" width="100" height="80" as="geometry"/>
                </mxCell>
                <mxCell id="43" value="" style="endArrow=none;html=1;" parent="1" source="42" target="5" edge="1">
                    <mxGeometry width="50" height="50" relative="1" as="geometry">
                        <mxPoint x="392.5" y="430" as="sourcePoint"/>
                        <mxPoint x="392.5" y="390" as="targetPoint"/>
                    </mxGeometry>
                </mxCell>
                <mxCell id="44" value="" style="endArrow=none;html=1;" parent="1" source="42" target="13" edge="1">
                    <mxGeometry width="50" height="50" relative="1" as="geometry">
                        <mxPoint x="402.5" y="440" as="sourcePoint"/>
                        <mxPoint x="402.5" y="400" as="targetPoint"/>
                    </mxGeometry>
                </mxCell>
                <mxCell id="45" value="1,1" style="text;html=1;align=center;verticalAlign=middle;resizable=0;points=[];autosize=1;strokeColor=none;fillColor=none;fontSize=11;fontFamily=Helvetica;fontColor=default;" parent="1" vertex="1">
                    <mxGeometry x="480" y="430" width="40" height="30" as="geometry"/>
                </mxCell>
                <mxCell id="46" value="0,n" style="text;html=1;align=center;verticalAlign=middle;resizable=0;points=[];autosize=1;strokeColor=none;fillColor=none;fontSize=11;fontFamily=Helvetica;fontColor=default;" parent="1" vertex="1">
                    <mxGeometry x="385" y="370" width="40" height="30" as="geometry"/>
                </mxCell>
                <mxCell id="47" value="0,n" style="text;html=1;align=center;verticalAlign=middle;resizable=0;points=[];autosize=1;strokeColor=none;fillColor=none;fontSize=11;fontFamily=Helvetica;fontColor=default;" parent="1" vertex="1">
                    <mxGeometry x="380" y="140" width="40" height="30" as="geometry"/>
                </mxCell>
                <mxCell id="48" value="0,1" style="text;html=1;align=center;verticalAlign=middle;resizable=0;points=[];autosize=1;strokeColor=none;fillColor=none;fontSize=11;fontFamily=Helvetica;fontColor=default;" parent="1" vertex="1">
                    <mxGeometry x="380" y="280" width="40" height="30" as="geometry"/>
                </mxCell>
                <mxCell id="49" value="&lt;u&gt;id_soldado&lt;/u&gt;" style="ellipse;whiteSpace=wrap;html=1;" parent="1" vertex="1">
                    <mxGeometry x="220" y="140" width="100" height="60" as="geometry"/>
                </mxCell>
                <mxCell id="50" value="apelido" style="ellipse;whiteSpace=wrap;html=1;" parent="1" vertex="1">
                    <mxGeometry x="180" y="40" width="100" height="60" as="geometry"/>
                </mxCell>
                <mxCell id="51" value="patente" style="ellipse;whiteSpace=wrap;html=1;" parent="1" vertex="1">
                    <mxGeometry x="390" y="-10" width="100" height="60" as="geometry"/>
                </mxCell>
                <mxCell id="52" value="num_de_&lt;br&gt;batalhas" style="ellipse;whiteSpace=wrap;html=1;" parent="1" vertex="1">
                    <mxGeometry x="260" y="-20" width="100" height="60" as="geometry"/>
                </mxCell>
                <mxCell id="53" value="" style="endArrow=none;html=1;" parent="1" source="5" target="51" edge="1">
                    <mxGeometry width="50" height="50" relative="1" as="geometry">
                        <mxPoint x="530" y="120" as="sourcePoint"/>
                        <mxPoint x="455" y="120" as="targetPoint"/>
                    </mxGeometry>
                </mxCell>
                <mxCell id="54" value="" style="endArrow=none;html=1;" parent="1" source="5" target="52" edge="1">
                    <mxGeometry width="50" height="50" relative="1" as="geometry">
                        <mxPoint x="540" y="130" as="sourcePoint"/>
                        <mxPoint x="465" y="130" as="targetPoint"/>
                    </mxGeometry>
                </mxCell>
                <mxCell id="56" value="" style="endArrow=none;html=1;" parent="1" source="5" target="50" edge="1">
                    <mxGeometry width="50" height="50" relative="1" as="geometry">
                        <mxPoint x="550" y="140" as="sourcePoint"/>
                        <mxPoint x="475" y="140" as="targetPoint"/>
                    </mxGeometry>
                </mxCell>
                <mxCell id="57" value="" style="endArrow=none;html=1;" parent="1" source="5" target="49" edge="1">
                    <mxGeometry width="50" height="50" relative="1" as="geometry">
                        <mxPoint x="560" y="150" as="sourcePoint"/>
                        <mxPoint x="485" y="150" as="targetPoint"/>
                    </mxGeometry>
                </mxCell>
                <mxCell id="58" value="&lt;u&gt;id_veiculo&lt;/u&gt;" style="ellipse;whiteSpace=wrap;html=1;" parent="1" vertex="1">
                    <mxGeometry x="640" y="180" width="100" height="60" as="geometry"/>
                </mxCell>
                <mxCell id="59" value="cap_de_tranporte" style="ellipse;whiteSpace=wrap;html=1;" parent="1" vertex="1">
                    <mxGeometry x="760" y="180" width="100" height="60" as="geometry"/>
                </mxCell>
                <mxCell id="60" value="peso" style="ellipse;whiteSpace=wrap;html=1;" parent="1" vertex="1">
                    <mxGeometry x="867.5" y="150" width="100" height="60" as="geometry"/>
                </mxCell>
                <mxCell id="61" value="modelo" style="ellipse;whiteSpace=wrap;html=1;" parent="1" vertex="1">
                    <mxGeometry x="877.5" y="60" width="100" height="60" as="geometry"/>
                </mxCell>
                <mxCell id="62" value="" style="endArrow=none;html=1;" parent="1" source="6" target="61" edge="1">
                    <mxGeometry width="50" height="50" relative="1" as="geometry">
                        <mxPoint x="845.833333333333" y="-60" as="sourcePoint"/>
                        <mxPoint x="786.8460302435342" y="-17.529141775344897" as="targetPoint"/>
                    </mxGeometry>
                </mxCell>
                <mxCell id="63" value="" style="endArrow=none;html=1;" parent="1" source="6" target="60" edge="1">
                    <mxGeometry width="50" height="50" relative="1" as="geometry">
                        <mxPoint x="855.833333333333" y="-50" as="sourcePoint"/>
                        <mxPoint x="796.8460302435342" y="-7.529141775344897" as="targetPoint"/>
                    </mxGeometry>
                </mxCell>
                <mxCell id="64" value="" style="endArrow=none;html=1;" parent="1" source="6" target="59" edge="1">
                    <mxGeometry width="50" height="50" relative="1" as="geometry">
                        <mxPoint x="865.833333333333" y="-40" as="sourcePoint"/>
                        <mxPoint x="806.8460302435342" y="2.470858224655103" as="targetPoint"/>
                    </mxGeometry>
                </mxCell>
                <mxCell id="65" value="" style="endArrow=none;html=1;" parent="1" source="6" target="58" edge="1">
                    <mxGeometry width="50" height="50" relative="1" as="geometry">
                        <mxPoint x="875.833333333333" y="-30" as="sourcePoint"/>
                        <mxPoint x="816.8460302435342" y="12.470858224655103" as="targetPoint"/>
                    </mxGeometry>
                </mxCell>
                <mxCell id="66" value="cap_de_carga" style="ellipse;whiteSpace=wrap;html=1;" parent="1" vertex="1">
                    <mxGeometry x="470" y="-220" width="100" height="60" as="geometry"/>
                </mxCell>
                <mxCell id="68" value="" style="endArrow=none;html=1;" parent="1" source="66" target="7" edge="1">
                    <mxGeometry width="50" height="50" relative="1" as="geometry">
                        <mxPoint x="675.8333333333333" y="-60" as="sourcePoint"/>
                        <mxPoint x="737.8342342506935" y="-17.07629936490457" as="targetPoint"/>
                    </mxGeometry>
                </mxCell>
                <mxCell id="69" value="cap_de_carga" style="ellipse;whiteSpace=wrap;html=1;" parent="1" vertex="1">
                    <mxGeometry x="600" y="-260" width="100" height="60" as="geometry"/>
                </mxCell>
                <mxCell id="70" value="" style="endArrow=none;html=1;" parent="1" source="69" target="9" edge="1">
                    <mxGeometry width="50" height="50" relative="1" as="geometry">
                        <mxPoint x="558.1155010703637" y="-155.1922049379143" as="sourcePoint"/>
                        <mxPoint x="598.3333333333333" y="-120" as="targetPoint"/>
                    </mxGeometry>
                </mxCell>
                <mxCell id="71" value="armamento" style="ellipse;whiteSpace=wrap;html=1;" parent="1" vertex="1">
                    <mxGeometry x="967.5" y="-230" width="100" height="60" as="geometry"/>
                </mxCell>
                <mxCell id="73" value="tipo" style="ellipse;whiteSpace=wrap;html=1;" parent="1" vertex="1">
                    <mxGeometry x="968.75" y="-110" width="100" height="60" as="geometry"/>
                </mxCell>
                <mxCell id="74" value="cap_de_munição" style="ellipse;whiteSpace=wrap;html=1;" parent="1" vertex="1">
                    <mxGeometry x="1080" y="-150" width="100" height="60" as="geometry"/>
                </mxCell>
                <mxCell id="75" value="" style="endArrow=none;html=1;" parent="1" source="71" target="10" edge="1">
                    <mxGeometry width="50" height="50" relative="1" as="geometry">
                        <mxPoint x="911.0464829660054" y="-208.58932865737302" as="sourcePoint"/>
                        <mxPoint x="964.1666666666665" y="-250" as="targetPoint"/>
                    </mxGeometry>
                </mxCell>
                <mxCell id="76" value="" style="endArrow=none;html=1;" parent="1" source="71" target="74" edge="1">
                    <mxGeometry width="50" height="50" relative="1" as="geometry">
                        <mxPoint x="921.0464829660054" y="-198.58932865737302" as="sourcePoint"/>
                        <mxPoint x="974.1666666666665" y="-240" as="targetPoint"/>
                    </mxGeometry>
                </mxCell>
                <mxCell id="77" value="" style="endArrow=none;html=1;" parent="1" source="73" target="71" edge="1">
                    <mxGeometry width="50" height="50" relative="1" as="geometry">
                        <mxPoint x="931.0464829660054" y="-188.58932865737302" as="sourcePoint"/>
                        <mxPoint x="984.1666666666665" y="-230" as="targetPoint"/>
                    </mxGeometry>
                </mxCell>
                <mxCell id="78" value="&lt;u&gt;id_sistema&lt;/u&gt;" style="ellipse;whiteSpace=wrap;html=1;" parent="1" vertex="1">
                    <mxGeometry x="907.5" y="330" width="100" height="60" as="geometry"/>
                </mxCell>
                <mxCell id="79" value="" style="endArrow=none;html=1;" parent="1" source="78" target="12" edge="1">
                    <mxGeometry width="50" height="50" relative="1" as="geometry">
                        <mxPoint x="779.8094557675972" y="150" as="sourcePoint"/>
                        <mxPoint x="803.8200743196405" y="191.61416547305362" as="targetPoint"/>
                    </mxGeometry>
                </mxCell>
                <mxCell id="80" value="&lt;u&gt;id_planeta&lt;/u&gt;" style="ellipse;whiteSpace=wrap;html=1;" parent="1" vertex="1">
                    <mxGeometry x="480" y="330" width="100" height="60" as="geometry"/>
                </mxCell>
                <mxCell id="81" value="gas_atmosfera" style="ellipse;whiteSpace=wrap;html=1;" parent="1" vertex="1">
                    <mxGeometry x="570" y="550" width="100" height="60" as="geometry"/>
                </mxCell>
                <mxCell id="82" value="quant_luas" style="ellipse;whiteSpace=wrap;html=1;" parent="1" vertex="1">
                    <mxGeometry x="670" y="510" width="100" height="60" as="geometry"/>
                </mxCell>
                <mxCell id="83" value="nome" style="ellipse;whiteSpace=wrap;html=1;" parent="1" vertex="1">
                    <mxGeometry x="622.5" y="330" width="100" height="60" as="geometry"/>
                </mxCell>
                <mxCell id="84" value="situação" style="ellipse;whiteSpace=wrap;html=1;" parent="1" vertex="1">
                    <mxGeometry x="440" y="530" width="100" height="60" as="geometry"/>
                </mxCell>
                <mxCell id="85" value="" style="endArrow=none;html=1;" parent="1" source="11" target="84" edge="1">
                    <mxGeometry width="50" height="50" relative="1" as="geometry">
                        <mxPoint x="530" y="470" as="sourcePoint"/>
                        <mxPoint x="442.5" y="470" as="targetPoint"/>
                    </mxGeometry>
                </mxCell>
                <mxCell id="86" value="" style="endArrow=none;html=1;" parent="1" source="11" target="80" edge="1">
                    <mxGeometry width="50" height="50" relative="1" as="geometry">
                        <mxPoint x="540" y="480" as="sourcePoint"/>
                        <mxPoint x="452.5" y="480" as="targetPoint"/>
                    </mxGeometry>
                </mxCell>
                <mxCell id="87" value="" style="endArrow=none;html=1;" parent="1" source="83" target="11" edge="1">
                    <mxGeometry width="50" height="50" relative="1" as="geometry">
                        <mxPoint x="550" y="490" as="sourcePoint"/>
                        <mxPoint x="462.5" y="490" as="targetPoint"/>
                    </mxGeometry>
                </mxCell>
                <mxCell id="88" value="" style="endArrow=none;html=1;" parent="1" source="81" target="11" edge="1">
                    <mxGeometry width="50" height="50" relative="1" as="geometry">
                        <mxPoint x="560" y="500" as="sourcePoint"/>
                        <mxPoint x="472.5" y="500" as="targetPoint"/>
                    </mxGeometry>
                </mxCell>
                <mxCell id="89" value="" style="endArrow=none;html=1;" parent="1" source="82" target="11" edge="1">
                    <mxGeometry width="50" height="50" relative="1" as="geometry">
                        <mxPoint x="570" y="510" as="sourcePoint"/>
                        <mxPoint x="482.5" y="510" as="targetPoint"/>
                    </mxGeometry>
                </mxCell>
                <mxCell id="90" value="&lt;u&gt;Id_base&lt;/u&gt;" style="ellipse;whiteSpace=wrap;html=1;" parent="1" vertex="1">
                    <mxGeometry x="180" y="290" width="100" height="60" as="geometry"/>
                </mxCell>
                <mxCell id="91" value="finalidade" style="ellipse;whiteSpace=wrap;html=1;" parent="1" vertex="1">
                    <mxGeometry x="200" y="390" width="100" height="60" as="geometry"/>
                </mxCell>
                <mxCell id="92" value="" style="endArrow=none;html=1;" parent="1" source="13" target="90" edge="1">
                    <mxGeometry width="50" height="50" relative="1" as="geometry">
                        <mxPoint x="576.6898027041336" y="440" as="sourcePoint"/>
                        <mxPoint x="554.8920059706127" y="398.63847302040904" as="targetPoint"/>
                    </mxGeometry>
                </mxCell>
                <mxCell id="93" value="" style="endArrow=none;html=1;" parent="1" source="13" target="91" edge="1">
                    <mxGeometry width="50" height="50" relative="1" as="geometry">
                        <mxPoint x="586.6898027041336" y="450" as="sourcePoint"/>
                        <mxPoint x="564.8920059706127" y="408.63847302040904" as="targetPoint"/>
                    </mxGeometry>
                </mxCell>
            </root>
        </mxGraphModel>
    </diagram>
</mxfile>